<?xml version="1.0" encoding="UTF-8"?>
<!-- Generator: Adobe Illustrator 24.0.1, SVG Export Plug-In . SVG Version: 6.00 Build 0)  -->
<svg version="1.1" id="Layer_1" xmlns="http://www.w3.org/2000/svg" xmlns:xlink="http://www.w3.org/1999/xlink" x="0px" y="0px" viewBox="0 0 802.8 742.1" style="enable-background:new 0 0 802.8 742.1;" xml:space="preserve">
<style type="text/css">
	.st0{fill:#00AEEF;}
	.st1{fill:#ED1C24;}
</style>
<g>
	<g>
		<path class="st0" d="M0.6,504.5h68c39.9,0,76.3,10.6,76.3,59.9c0,50.3-39.4,60.7-76.8,60.7H41.6v66.5h-41V504.5z M69.6,593.2    c25.5,0,35.1-9.9,35.1-27.8c0-17.4-9.4-27.3-35.1-27.3H41.6v55.1H69.6z"/>
		<path class="st0" d="M156.3,556.8H197v22.5h0.3c7.3-11.4,20.2-25.3,45.5-25.3h1.3l-0.5,36.1c-1.5-0.3-8.1-0.8-10.6-0.8    c-16.2,0-28.3,8.6-35.9,18.5v83.7h-40.7V556.8z"/>
		<path class="st0" d="M244,657.2c0-31.1,26.3-48.3,85.4-53.1v-3.3c0-9.9-5.1-16.2-18.2-16.2c-17.2,0-31.9,7.1-44.2,16.7l-17.2-23.3    c13.4-12.1,33.6-24,67.2-24c36.9,0,52.1,18.2,52.1,52.8v51.8c0,16.2,1,26,3.8,32.9h-40.4c-1.8-5.6-3-12.1-3-19.7    c-12.4,13.9-27,21.7-47,21.7C261.7,693.6,244,680.2,244,657.2z M329.5,651.4v-25c-32.1,3.3-45.8,11.4-45.8,23.8    c0,8.6,6.1,12.9,14.9,12.9C312.8,663,322.6,658.2,329.5,651.4z"/>
		<path class="st0" d="M371.7,711.8c0-13.1,10.9-22,23.3-27c-5.8-3.8-9.1-9.1-9.1-16.2c0-11.1,8.8-20.7,19.5-27.6    c-14.7-8.6-22.2-22.5-22.2-38.7c0-27,21.7-48.3,60.7-48.3c20,0,35.1,5.6,45.2,14.7c9.1-7.8,23.5-13.1,34.6-13.9v31.1    c-4.8,0-13.1,0.5-22.7,3c1.5,3.5,2.5,8.1,2.5,13.4c0,27.3-21,48-59.7,48c-7.6,0-14.7-1-20.7-2.3c-2.8,2.3-4.5,4.3-4.5,6.8    c0,5.1,5.3,6.1,15.2,6.6l20.2,1.3c46.3,1.8,65,12.9,65,38.2c0,27.8-32.6,41.2-77.3,41.2C388.9,742.1,371.7,730.8,371.7,711.8z     M483.2,707.7c0-8.3-4-12.1-35.9-13.7l-21.2-1c-3-0.3-6.1-0.5-8.8-0.8c-5.1,3.3-7.6,7.6-7.6,12.1c0,11.6,10.9,17.2,38.4,17.2    C468.7,721.6,483.2,716.6,483.2,707.7z M467.2,603.9c0-13.6-7.8-24-23-24c-14.9,0-23,10.4-23,24c0,13.7,8.3,24,23,24    C459.1,627.9,467.2,617.5,467.2,603.9z"/>
		<path class="st0" d="M532.2,655.2v-98.3h40.7v86.5c0,12.1,4.5,18.7,15.9,18.7c10.9,0,20.2-5.8,29.3-13.6v-91.5h40.7v134.7h-40.7    v-21c-8.1,10.4-23,23.8-46.5,23.8C548.6,694.3,532.2,683,532.2,655.2z"/>
		<path class="st0" d="M672,624.3c0-52.3,39.9-70.3,67.7-70.3s61.9,13.9,61.9,75.1v6.1h-89.2c2,22.2,14.4,30.8,31.3,30.8    c15.9,0,30.8-7.8,39.9-16.2l15.7,24.3c-15.7,13.4-35.1,20.2-58.6,20.2C705.6,694.3,672,676.4,672,624.3z M765.3,611.2    c-2-19-10.6-28.1-25.8-28.1c-12.6,0-23.5,8.3-26.5,28.1H765.3z"/>
	</g>
	<g>
		<g>
			<g>
				<path class="st1" d="M0.7,0.4h61.5l47.2,154.3h0.6L154.1,0.4h63v210h-44.9V67.1h-0.6c-3.1,18.2-7.2,31.5-11.7,46.8l-31.8,96.5      H86.9l-31.5-96.5c-4.9-15.9-7.7-25-12.3-49.1h-0.6v145.6H0.7V0.4z"/>
				<path class="st1" d="M234.8,171.8c0-34.9,29.8-54.2,96.7-59.6v-3.7c0-11.1-5.7-18.2-20.6-18.2c-19.5,0-36.1,7.9-50.1,18.7      L241.4,83c15.2-13.6,38.1-27,76.1-27c41.8,0,59,20.4,59,59.3v58.2c0,18.2,1.1,29.2,4.3,36.9H335c-2-6.2-3.4-13.6-3.4-22.1      c-14,15.6-30.6,24.4-53.2,24.4C254.9,212.6,234.8,197.6,234.8,171.8 M331.6,165.2v-28.1c-36.3,3.7-51.8,12.8-51.8,26.7      c0,9.6,6.9,14.5,16.9,14.5C312.7,178.3,323.8,172.9,331.6,165.2"/>
				<polygon class="st1" points="398.5,0.4 444.6,0.4 444.6,115.6 492.1,59.1 541.6,59.1 491.8,115.6 544.5,210.4 497,210.4       463.2,148.8 444.6,169.5 444.6,210.4 398.5,210.4     "/>
				<path class="st1" d="M538.2,134.9c0-58.7,45.2-78.9,76.7-78.9c31.5,0,70.1,15.6,70.1,84.3v6.8H584c2.3,25,16.3,34.6,35.5,34.6      c18,0,34.9-8.8,45.2-18.2l17.7,27.2c-17.7,15-39.8,22.7-66.4,22.7C576.2,213.5,538.2,193.3,538.2,134.9 M643.8,120.1      c-2.3-21.3-12-31.5-29.2-31.5c-14.3,0-26.6,9.4-30.1,31.5H643.8z"/>
				<path class="st1" d="M700.2,59.1h46.1v25.3h0.3C754.8,71.6,769.4,56,798,56h1.4l-0.6,40.6c-1.7-0.3-9.2-0.9-12-0.9      c-18.3,0-32.1,9.6-40.6,20.7v93.9h-46.1V59.1z"/>
				<polygon class="st1" points="0.6,254.1 140.6,254.1 140.6,292.7 47.3,292.7 47.3,343.7 113.7,343.7 113.7,380.3 47.3,380.3       47.3,464 0.6,464     "/>
				<path class="st1" d="M121.9,425.5c0-34.9,29.8-54.2,96.7-59.6v-3.7c0-11.1-5.7-18.2-20.6-18.2c-19.5,0-36.1,7.9-50.1,18.7      l-19.5-26.1c15.2-13.6,38.1-27,76.1-27c41.8,0,59,20.4,59,59.3v58.2c0,18.2,1.1,29.2,4.3,36.9h-45.8c-2-6.2-3.4-13.6-3.4-22.1      c-14,15.6-30.6,24.4-53.2,24.4C142,466.3,121.9,451.3,121.9,425.5 M218.7,418.9v-28.1c-36.4,3.7-51.8,12.8-51.8,26.7      c0,9.6,6.9,14.5,16.9,14.5C199.8,432,211,426.6,218.7,418.9"/>
				<path class="st1" d="M287.1,255.5h46.4v36.6h-46.4V255.5z M287.4,312.8h45.8V464h-45.8V312.8z"/>
				<path class="st1" d="M358.4,312.8h46.1v25.3h0.3c8.3-12.8,22.9-28.4,51.5-28.4h1.4l-0.6,40.6c-1.7-0.3-9.2-0.9-12-0.9      c-18.3,0-32.1,9.6-40.6,20.7V464h-46.1V312.8z"/>
				<path class="st1" d="M453.4,388.6c0-58.7,45.2-78.9,76.7-78.9c31.5,0,70.1,15.6,70.1,84.3v6.8h-101c2.3,25,16.3,34.6,35.5,34.6      c18,0,34.9-8.8,45.2-18.2l17.7,27.2c-17.7,15-39.8,22.7-66.4,22.7C491.4,467.2,453.4,447,453.4,388.6 M559,373.8      c-2.3-21.3-12-31.5-29.2-31.5c-14.3,0-26.6,9.4-30.1,31.5H559z"/>
			</g>
		</g>
	</g>
	<g>
		<path class="st1" d="M588.4,321.2c0-5.3,4.1-9.4,9.4-9.4c5.4,0,9.6,4.3,9.3,9.7c-0.2,4.8-4.3,8.7-9.1,8.9    C592.6,330.6,588.4,326.5,588.4,321.2 M605.2,321.2c0-4.4-3.2-7.7-7.5-7.7c-4.3,0-7.5,3.2-7.5,7.6c0,4.4,3.2,7.7,7.5,7.7    C602.1,328.7,605.2,325.5,605.2,321.2 M594,315.8h4c2.5,0,4,1.1,4,3.3c0,1.6-0.8,2.5-1.9,2.9l2,3.9h-2.6l-1.8-3.6h-1.2v3.6H594    V315.8z M597.8,320.6c1.1,0,1.7-0.4,1.7-1.4c0-0.9-0.6-1.3-1.7-1.3h-1.4v2.7H597.8z"/>
	</g>
</g>
</svg>